<svg width="20" height="20" viewBox="0 0 20 20" fill="none" xmlns="http://www.w3.org/2000/svg">
<g clip-path="url(#clip0)">
<path d="M18.9993 13.2046H17.08L16.5413 17.2693C16.4642 17.815 15.963 18.1977 15.4162 18.1282L0.868834 16.2003C0.605199 16.1649 0.366457 16.0261 0.205391 15.8143C0.0436164 15.604 -0.0270141 15.3376 0.0092601 15.0748L1.23675 5.81765C1.30196 5.3191 1.72695 4.94635 2.22974 4.94673C2.27281 4.94681 2.3158 4.94973 2.35849 4.9554L3.32214 5.08249V2.86434C3.32214 2.31168 3.77014 1.86367 4.3228 1.86367H18.9993C19.5519 1.86367 19.9999 2.31168 19.9999 2.86434V12.2039C19.9999 12.7566 19.5519 13.2046 18.9993 13.2046ZM16.4072 13.2046H13.8025L16.3622 13.5438L16.4072 13.2046ZM0.669701 15.1649C0.657985 15.252 0.681751 15.3401 0.735745 15.4094C0.789406 15.4807 0.869417 15.5276 0.957893 15.5395L15.5026 17.4668C15.6855 17.49 15.8533 17.3624 15.8799 17.1799L16.0116 16.1866L0.801455 14.1696L0.669701 15.1649ZM3.32214 5.75527L2.27277 5.61684C2.09015 5.59258 1.92245 5.72095 1.89819 5.90358C1.89819 5.90362 1.89819 5.90366 1.89819 5.9037L1.15402 11.5268L3.32214 11.8133V5.75527ZM3.36617 12.4918L1.06463 12.1882L0.889514 13.5078L16.0997 15.5251L16.1997 14.7606L16.2738 14.2053L8.72574 13.2046H4.3228C3.88168 13.2038 3.49308 12.9143 3.36617 12.4918ZM19.3328 2.86434C19.3328 2.68013 19.1835 2.53078 18.9993 2.53078H4.3228C4.1386 2.53078 3.98925 2.68013 3.98925 2.86434V12.1939C3.98925 12.1972 3.99092 12.2006 3.99092 12.2039C3.99092 12.3881 4.14027 12.5375 4.32447 12.5375H18.9993C19.1835 12.5375 19.3328 12.3881 19.3328 12.2039V2.86434Z" fill="#219653"/>
<path d="M14.6451 8.19354C14.7792 8.29253 14.8977 8.41102 14.9966 8.54511C15.545 7.80691 16.5881 7.65306 17.3263 8.20151C18.0645 8.74992 18.2183 9.79295 17.6699 10.5312C17.3552 10.9547 16.8585 11.204 16.3309 11.2033C15.8038 11.2018 15.3088 10.9504 14.9966 10.5258C14.4497 11.2669 13.4055 11.4243 12.6644 10.8774C11.9233 10.3304 11.7659 9.28628 12.3128 8.54511C12.8598 7.80403 13.904 7.64659 14.6451 8.19354ZM16.3309 10.5362C16.8835 10.5362 17.3315 10.0881 17.3315 9.53549C17.3315 8.98282 16.8835 8.53482 16.3309 8.53482C15.7782 8.53482 15.3302 8.98282 15.3302 9.53549C15.3302 10.0881 15.7782 10.5362 16.3309 10.5362ZM13.6624 10.5362C14.2151 10.5362 14.6631 10.0881 14.6631 9.53549C14.6631 8.98282 14.2151 8.53482 13.6624 8.53482C13.1098 8.53482 12.6617 8.98282 12.6617 9.53549C12.6617 10.0881 13.1098 10.5362 13.6624 10.5362Z" fill="#219653"/>
<path d="M5.99069 10.8698H5.32358V10.2026H5.99069V10.8698Z" fill="#219653"/>
<path d="M10.6605 10.8698H6.65781V10.2026H10.6605V10.8698Z" fill="#219653"/>
<path d="M10.6605 9.53552H5.32358V8.86839H10.6605V9.53552Z" fill="#219653"/>
<path d="M17.6652 6.53345H5.65714C5.47293 6.53345 5.32358 6.3841 5.32358 6.19989V4.19855C5.32358 4.01434 5.47293 3.865 5.65714 3.865H17.6652C17.8494 3.865 17.9987 4.01434 17.9987 4.19855V6.19989C17.9987 6.3841 17.8494 6.53345 17.6652 6.53345ZM17.3316 4.53211H5.99069V5.86633H17.3316V4.53211Z" fill="#219653"/>
</g>
<defs>
<clipPath id="clip0">
<rect width="20" height="20" fill="white" transform="matrix(1 0 0 -1 0 20)"/>
</clipPath>
</defs>
</svg>
