<svg width="20" height="20" viewBox="0 0 20 20" fill="none" xmlns="http://www.w3.org/2000/svg">
<g clip-path="url(#clip0)">
<path d="M18.4957 5.42651L18.4951 5.41094C18.4864 5.21883 18.4806 5.01559 18.4771 4.78945C18.4607 3.6867 17.5841 2.77454 16.4812 2.71289C14.1817 2.58456 12.4029 1.83475 10.8829 0.353278L10.87 0.340919C10.3742 -0.11364 9.62637 -0.11364 9.13046 0.340919L9.11749 0.353278C7.59757 1.83475 5.8187 2.58456 3.51921 2.71304C2.41646 2.77454 1.53969 3.6867 1.52337 4.78961C1.52001 5.01421 1.51406 5.21746 1.50536 5.41094L1.50444 5.44711C1.45974 7.79192 1.40419 10.7102 2.38045 13.3589C2.91725 14.8155 3.73024 16.0817 4.79667 17.1225C6.01127 18.3078 7.60214 19.2488 9.52505 19.9193C9.58761 19.9411 9.65261 19.9588 9.71884 19.9721C9.81222 19.9907 9.90621 20 10.0002 20C10.0942 20 10.1883 19.9907 10.2816 19.9721C10.3478 19.9588 10.4133 19.9409 10.4761 19.919C12.3967 19.2473 13.9859 18.3058 15.1995 17.1207C16.2654 16.0796 17.0784 14.8131 17.6157 13.3562C18.5956 10.6995 18.5402 7.77574 18.4957 5.42651ZM16.5146 12.9501C15.485 15.7419 13.3831 17.6591 10.0889 18.8112C10.0771 18.8151 10.0646 18.8187 10.0516 18.8212C10.0176 18.828 9.98297 18.828 9.94848 18.8211C9.93566 18.8185 9.92315 18.8151 9.91156 18.8112C6.61384 17.6613 4.51057 15.7451 3.48167 12.9532C2.58186 10.5116 2.63283 7.83281 2.67784 5.46954L2.67815 5.45641C2.6873 5.25332 2.69341 5.04061 2.69676 4.80685C2.70409 4.3172 3.0941 3.91208 3.58467 3.88476C4.88594 3.81213 6.02912 3.56067 7.07953 3.11603C8.12857 2.672 9.06027 2.04608 9.92758 1.20258C9.97167 1.16535 10.0289 1.1652 10.0728 1.20258C10.9403 2.04608 11.872 2.672 12.9209 3.11603C13.9713 3.56067 15.1145 3.81213 16.4159 3.88476C16.9065 3.91208 17.2965 4.3172 17.3037 4.807C17.3072 5.04199 17.3133 5.25469 17.3224 5.45641C17.3673 7.82243 17.417 10.5034 16.5146 12.9501Z" fill="#219653"/>
<path d="M10 5.01611C7.25159 5.01611 5.01572 7.25214 5.01572 10.0004C5.01572 12.7488 7.25159 14.9848 10 14.9848C12.7483 14.9848 14.9843 12.7488 14.9843 10.0004C14.9843 7.25214 12.7483 5.01611 10 5.01611ZM10 13.8111C7.89872 13.8111 6.18927 12.1017 6.18927 10.0004C6.18927 7.89911 7.89872 6.18967 10 6.18967C12.1011 6.18967 13.8106 7.89911 13.8106 10.0004C13.8106 12.1017 12.1011 13.8111 10 13.8111Z" fill="#219653"/>
<path d="M11.4325 8.45289L9.11741 10.768L8.48905 10.1396C8.25986 9.91041 7.88831 9.91041 7.65913 10.1396C7.43009 10.3688 7.43009 10.7403 7.65913 10.9694L8.70252 12.0128C8.81712 12.1274 8.96726 12.1846 9.11741 12.1846C9.26756 12.1846 9.4177 12.1274 9.5323 12.0128L12.2624 9.28266C12.4914 9.05347 12.4914 8.68192 12.2624 8.45289C12.0332 8.22355 11.6617 8.22355 11.4325 8.45289Z" fill="#219653"/>
</g>
<defs>
<clipPath id="clip0">
<rect width="20" height="20" fill="white"/>
</clipPath>
</defs>
</svg>
