<svg width="16" height="14" viewBox="0 0 16 14" fill="none" xmlns="http://www.w3.org/2000/svg">
<path opacity="0.5" d="M3.59246 13.9993C3.53761 13.9993 3.48275 13.9825 3.43665 13.9491C3.35504 13.8902 3.31424 13.7905 3.33146 13.6919L4.1505 8.95331L0.681721 5.59779C0.609648 5.52783 0.583687 5.42343 0.614689 5.32849C0.645956 5.23328 0.728882 5.16385 0.828777 5.14939L5.62217 4.45798L7.76609 0.146749C7.8106 0.0568061 7.90282 0 8.00351 0C8.10446 0 8.19667 0.0568061 8.24092 0.146749L10.3846 4.45798L15.1783 5.14939C15.2782 5.16385 15.3608 5.23302 15.3924 5.32849C15.4234 5.42343 15.3977 5.5281 15.3253 5.59779L11.8565 8.95383L12.6753 13.6922C12.6922 13.7908 12.6514 13.8905 12.5701 13.9494C12.4885 14.0088 12.3801 14.0164 12.2908 13.9694L8.00351 11.7323L3.71566 13.9694C3.67698 13.9893 3.63459 13.9993 3.59246 13.9993Z" fill="#FFA800"/>
</svg>
